<svg width="112" height="117" viewBox="0 0 112 117" fill="none" xmlns="http://www.w3.org/2000/svg">
<path d="M53 3.80384C54.8564 2.73205 57.1436 2.73205 59 3.80384L101.497 28.3397C103.354 29.4115 104.497 31.3923 104.497 33.5359V82.6077C104.497 84.7513 103.354 86.732 101.497 87.8038L59 112.34C57.1436 113.412 54.8564 113.412 53 112.34L10.5026 87.8038C8.64617 86.732 7.50258 84.7513 7.50258 82.6077V33.5359C7.50258 31.3923 8.64617 29.4115 10.5026 28.3397L53 3.80384Z" fill="white"/>
<path d="M52.4688 2.38332C54.7483 1.1664 57.5019 1.20656 59.75 2.50441L102.247 27.0405C104.568 28.3802 105.997 30.8563 105.997 33.5357V82.6079C105.997 85.2873 104.568 87.7633 102.247 89.103L59.75 113.639C57.5019 114.937 54.7483 114.977 52.4688 113.76L52.25 113.639L9.75293 89.103C7.43249 87.7633 6.00301 85.2873 6.00293 82.6079V33.5357C6.00301 30.8563 7.43249 28.3802 9.75293 27.0405L52.25 2.50441L52.4688 2.38332Z" fill="url(#paint0_linear_117_61)" stroke="#D3D3D3" stroke-width="3"/>
<g filter="url(#filter0_f_117_61)">
<path d="M55.0231 26.5346C55.2526 25.4863 56.7474 25.4863 56.9769 26.5346L61.582 47.5727C61.6395 47.8355 61.8005 48.064 62.0285 48.2066L75.6447 56.724C76.2709 57.1157 76.2709 58.0279 75.6447 58.4196L62.0285 66.9369C61.8005 67.0796 61.6395 67.3081 61.582 67.5709L56.9769 88.609C56.7474 89.6572 55.2526 89.6572 55.0231 88.609L50.418 67.5709C50.3605 67.3081 50.1995 67.0796 49.9715 66.9369L36.3553 58.4196C35.7291 58.0279 35.7291 57.1157 36.3553 56.724L49.9715 48.2066C50.1995 48.064 50.3605 47.8355 50.418 47.5727L55.0231 26.5346Z" fill="#FFD257"/>
<path d="M54.5352 26.4273C54.8796 24.8556 57.1204 24.8556 57.4648 26.4273L62.0703 47.4653C62.0991 47.5967 62.1799 47.7114 62.2939 47.7827L75.9102 56.3003C76.8491 56.8879 76.8491 58.2556 75.9102 58.8433L62.2939 67.3609C62.1799 67.4322 62.0991 67.5468 62.0703 67.6782L57.4648 88.7163C57.1204 90.288 54.8796 90.288 54.5352 88.7163L49.9297 67.6782C49.9009 67.5468 49.8201 67.4322 49.7061 67.3609L36.0898 58.8433C35.1509 58.2556 35.1509 56.8879 36.0898 56.3003L49.7061 47.7827C49.8201 47.7114 49.9009 47.5967 49.9297 47.4653L54.5352 26.4273Z" stroke="black"/>
</g>
<path d="M55.0231 26.5346C55.2526 25.4863 56.7474 25.4863 56.9769 26.5346L61.582 47.5727C61.6395 47.8355 61.8005 48.064 62.0285 48.2066L75.6447 56.724C76.2709 57.1157 76.2709 58.0279 75.6447 58.4196L62.0285 66.9369C61.8005 67.0796 61.6395 67.3081 61.582 67.5709L56.9769 88.609C56.7474 89.6572 55.2526 89.6572 55.0231 88.609L50.418 67.5709C50.3605 67.3081 50.1995 67.0796 49.9715 66.9369L36.3553 58.4196C35.7291 58.0279 35.7291 57.1157 36.3553 56.724L49.9715 48.2066C50.1995 48.064 50.3605 47.8355 50.418 47.5727L55.0231 26.5346Z" fill="white"/>
<g filter="url(#filter1_f_117_61)">
<circle cx="88" cy="37.0718" r="3" fill="#FFD257"/>
</g>
<circle cx="88" cy="37.0718" r="3" fill="white"/>
<g filter="url(#filter2_f_117_61)">
<circle cx="32.5" cy="84.5718" r="2.5" fill="#FFD257"/>
</g>
<circle cx="32.5" cy="84.5718" r="2.5" fill="white"/>
<g filter="url(#filter3_f_117_61)">
<circle cx="93" cy="44.0718" r="1" fill="#FFD257"/>
</g>
<circle cx="93" cy="44.0718" r="1" fill="white"/>
<g filter="url(#filter4_f_117_61)">
<ellipse cx="16.5" cy="50.0718" rx="1.5" ry="1" fill="#FFD257"/>
</g>
<ellipse cx="16.5" cy="50.0718" rx="1.5" ry="1" fill="white"/>
<g filter="url(#filter5_f_117_61)">
<circle cx="45" cy="17.0718" r="1" fill="#FFD257"/>
</g>
<circle cx="45" cy="17.0718" r="1" fill="white"/>
<g filter="url(#filter6_f_117_61)">
<circle cx="81" cy="80.0718" r="1" fill="#FFD257"/>
</g>
<circle cx="81" cy="80.0718" r="1" fill="white"/>
<defs>
<filter id="filter0_f_117_61" x="26.8856" y="16.7484" width="58.2287" height="81.6468" filterUnits="userSpaceOnUse" color-interpolation-filters="sRGB">
<feFlood flood-opacity="0" result="BackgroundImageFix"/>
<feBlend mode="normal" in="SourceGraphic" in2="BackgroundImageFix" result="shape"/>
<feGaussianBlur stdDeviation="4" result="effect1_foregroundBlur_117_61"/>
</filter>
<filter id="filter1_f_117_61" x="81" y="30.0718" width="14" height="14" filterUnits="userSpaceOnUse" color-interpolation-filters="sRGB">
<feFlood flood-opacity="0" result="BackgroundImageFix"/>
<feBlend mode="normal" in="SourceGraphic" in2="BackgroundImageFix" result="shape"/>
<feGaussianBlur stdDeviation="2" result="effect1_foregroundBlur_117_61"/>
</filter>
<filter id="filter2_f_117_61" x="26" y="78.0718" width="13" height="13" filterUnits="userSpaceOnUse" color-interpolation-filters="sRGB">
<feFlood flood-opacity="0" result="BackgroundImageFix"/>
<feBlend mode="normal" in="SourceGraphic" in2="BackgroundImageFix" result="shape"/>
<feGaussianBlur stdDeviation="2" result="effect1_foregroundBlur_117_61"/>
</filter>
<filter id="filter3_f_117_61" x="88" y="39.0718" width="10" height="10" filterUnits="userSpaceOnUse" color-interpolation-filters="sRGB">
<feFlood flood-opacity="0" result="BackgroundImageFix"/>
<feBlend mode="normal" in="SourceGraphic" in2="BackgroundImageFix" result="shape"/>
<feGaussianBlur stdDeviation="2" result="effect1_foregroundBlur_117_61"/>
</filter>
<filter id="filter4_f_117_61" x="11" y="45.0718" width="11" height="10" filterUnits="userSpaceOnUse" color-interpolation-filters="sRGB">
<feFlood flood-opacity="0" result="BackgroundImageFix"/>
<feBlend mode="normal" in="SourceGraphic" in2="BackgroundImageFix" result="shape"/>
<feGaussianBlur stdDeviation="2" result="effect1_foregroundBlur_117_61"/>
</filter>
<filter id="filter5_f_117_61" x="40" y="12.0718" width="10" height="10" filterUnits="userSpaceOnUse" color-interpolation-filters="sRGB">
<feFlood flood-opacity="0" result="BackgroundImageFix"/>
<feBlend mode="normal" in="SourceGraphic" in2="BackgroundImageFix" result="shape"/>
<feGaussianBlur stdDeviation="2" result="effect1_foregroundBlur_117_61"/>
</filter>
<filter id="filter6_f_117_61" x="76" y="75.0718" width="10" height="10" filterUnits="userSpaceOnUse" color-interpolation-filters="sRGB">
<feFlood flood-opacity="0" result="BackgroundImageFix"/>
<feBlend mode="normal" in="SourceGraphic" in2="BackgroundImageFix" result="shape"/>
<feGaussianBlur stdDeviation="2" result="effect1_foregroundBlur_117_61"/>
</filter>
<linearGradient id="paint0_linear_117_61" x1="56" y1="2.07179" x2="56" y2="114.072" gradientUnits="userSpaceOnUse">
<stop/>
<stop offset="1" stop-color="#413C52"/>
</linearGradient>
</defs>
</svg>
